<svg width="220" height="240" viewBox="0 0 220 240" fill="none" xmlns="http://www.w3.org/2000/svg">
  <defs>
    <linearGradient id="fur" x1="0" y1="0" x2="1" y2="1">
      <stop offset="0%" stop-color="#5C36A6"/>
      <stop offset="100%" stop-color="#4B2C82"/>
    </linearGradient>
    <linearGradient id="band" x1="0" y1="0" x2="1" y2="0">
      <stop offset="0%" stop-color="#6F3CCF"/>
      <stop offset="100%" stop-color="#8B63F1"/>
    </linearGradient>
  </defs>

  <rect width="220" height="240" rx="28" fill="#0F1116"/>

  <!-- ears -->
  <path d="M82 38 C78 16 96 8 108 12 C116 14 118 28 116 42 L110 80 L90 80 Z" fill="url(#fur)" stroke="#2E1A52" stroke-width="4"/>
  <path d="M138 38 C142 16 124 8 112 12 C104 14 102 28 104 42 L110 80 L130 80 Z" fill="url(#fur)" stroke="#2E1A52" stroke-width="4"/>

  <!-- head -->
  <circle cx="110" cy="125" r="72" fill="url(#fur)" stroke="#2E1A52" stroke-width="5"/>

  <!-- headband -->
  <rect x="42" y="96" width="136" height="32" rx="10" fill="url(#band)"/>
  <path d="M178 110 L198 118 L178 126 Z" fill="url(#band)"/>

  <!-- eyes -->
  <circle cx="92" cy="116" r="10" fill="#0F1116" stroke="#F4F5FB" stroke-width="4"/>
  <circle cx="128" cy="116" r="10" fill="#0F1116" stroke="#F4F5FB" stroke-width="4"/>

  <!-- nose/mouth -->
  <path d="M110 135 L104 143 L116 143 Z" fill="#F4F5FB"/>
  <path d="M104 145 Q110 150 116 145" stroke="#F4F5FB" stroke-width="3" fill="none"/>

  <!-- scarf -->
  <path d="M68 152 Q110 178 152 152 L148 186 Q110 206 72 186 Z" fill="#0F1116" stroke="#4B2C82" stroke-width="4"/>

  <!-- cheeks -->
  <circle cx="82" cy="132" r="8" fill="#6F3CCF" opacity="0.6"/>
  <circle cx="138" cy="132" r="8" fill="#6F3CCF" opacity="0.6"/>
</svg>
